<?xml version="1.0" encoding="utf-8"?><svg viewBox="0 0 29 29" xmlns="http://www.w3.org/2000/svg" xmlns:xlink="http://www.w3.org/1999/xlink"><style>:root>svg{display:none}:root>svg:target{display:block}</style><svg fill="none" viewBox="0 0 29 29" id="bitbucket" xmlns="http://www.w3.org/2000/svg"><g clip-path="url(#aa)"><path d="M.941 0a.824.824 0 00-.39.088.977.977 0 00-.329.27 1.04 1.04 0 00-.19.39 1.17 1.17 0 00-.023.45l3.947 26.628c.06.337.217.639.442.852.226.214.507.328.794.321h18.922a.817.817 0 00.597-.23 1.14 1.14 0 00.332-.638l3.945-26.927a1.17 1.17 0 00-.025-.45 1.042 1.042 0 00-.189-.388.977.977 0 00-.327-.27.824.824 0 00-.391-.088L.94 0zm16.608 19.245H11.51l-1.636-9.5h9.14l-1.465 9.5z" fill="#2684FF"/><path d="M27.732 9.744h-8.719l-1.463 9.501h-6.04l-7.13 9.409c.231.22.517.34.813.34H24.12a.817.817 0 00.597-.23 1.14 1.14 0 00.332-.637l2.684-18.383z" fill="url(#ab)"/></g><defs><linearGradient id="ab" x1="29.74" y1="12.401" x2="18.195" y2="27.155" gradientUnits="userSpaceOnUse"><stop offset=".18" stop-color="#0052CC"/><stop offset="1" stop-color="#2684FF"/></linearGradient><clipPath id="aa"><path fill="#fff" d="M0 0h29v29H0z"/></clipPath></defs></svg><svg fill="none" viewBox="0 0 29 29" id="github" xmlns="http://www.w3.org/2000/svg"><g clip-path="url(#ba)"><path fill-rule="evenodd" clip-rule="evenodd" d="M14.5 0a14.29 14.29 0 00-9.397 3.544C2.481 5.83.738 9 .186 12.486a15.182 15.182 0 001.907 10.077c1.782 3.02 4.554 5.293 7.82 6.409.726.13.994-.316.994-.706 0-.353-.018-1.528-.018-2.77-3.643.688-4.586-.91-4.876-1.746a5.401 5.401 0 00-1.49-2.1c-.508-.279-1.233-.967-.018-.985.464.051.91.217 1.297.483.389.266.708.625.932 1.045.199.365.465.686.785.946.32.26.686.451 1.078.565a3.023 3.023 0 002.36-.285 3.16 3.16 0 01.924-1.988c-3.229-.372-6.598-1.653-6.598-7.34a5.87 5.87 0 011.49-3.996 5.467 5.467 0 01.145-3.94s1.215-.39 3.988 1.528a13.346 13.346 0 017.25 0c2.773-1.933 3.988-1.528 3.988-1.528a5.467 5.467 0 01.144 3.94 5.835 5.835 0 011.49 3.996c0 5.705-3.389 6.968-6.615 7.34.346.36.613.792.782 1.266.169.475.236.981.197 1.485 0 1.988-.018 3.586-.018 4.088 0 .39.271.855.993.706 3.263-1.123 6.03-3.4 7.807-6.422a15.19 15.19 0 001.892-10.077c-.555-3.483-2.3-6.65-4.922-8.936A14.297 14.297 0 0014.5 0z" fill="#1B1F23"/></g><defs><clipPath id="ba"><path fill="#fff" d="M0 0h29v29H0z"/></clipPath></defs></svg><svg fill="none" viewBox="0 0 29 29" id="gitlab" xmlns="http://www.w3.org/2000/svg"><g clip-path="url(#ca)" fill-rule="evenodd" clip-rule="evenodd"><path d="M28.948 16.582l-1.623-5.421L24.107.416a.653.653 0 00-.209-.301.511.511 0 00-.317-.113.511.511 0 00-.316.113.653.653 0 00-.21.3l-3.217 10.746H9.161L5.943.416a.653.653 0 00-.209-.301.511.511 0 00-.317-.113.511.511 0 00-.317.113.653.653 0 00-.208.3L1.674 11.162l-1.62 5.421c-.07.244-.07.509.003.752.073.243.213.451.399.59L14.5 29.001l14.044-11.077c.186-.139.326-.347.399-.59a1.34 1.34 0 00.002-.752" fill="#FC6D26"/><path d="M14.5 29l5.34-17.844H9.16l5.34 17.84V29z" fill="#E24329"/><path d="M14.5 29.001L9.16 11.16H1.677L14.5 29z" fill="#FC6D26"/><path d="M1.676 11.16L.054 16.58c-.07.244-.07.509.003.752.073.243.213.451.399.59L14.5 29 1.676 11.16z" fill="#FCA326"/><path d="M1.677 11.16h7.484L5.944.415a.653.653 0 00-.209-.301A.511.511 0 005.418 0a.511.511 0 00-.317.114.653.653 0 00-.209.3L1.677 11.16z" fill="#E24329"/><path d="M14.5 29l5.34-17.84h7.484L14.5 29z" fill="#FC6D26"/><path d="M27.323 11.16l1.624 5.421c.07.244.07.509-.003.752a1.141 1.141 0 01-.399.59L14.5 29l12.823-17.84z" fill="#FCA326"/><path d="M27.323 11.16H19.84L23.057.415a.653.653 0 01.209-.301.511.511 0 01.317-.114c.113 0 .223.04.317.114a.653.653 0 01.209.3l3.217 10.746h-.003z" fill="#E24329"/></g><defs><clipPath id="ca"><path fill="#fff" d="M0 0h29v29H0z"/></clipPath></defs></svg></svg>